<?xml version="1.0" encoding="UTF-8" standalone="no"?>
<svg
   id="e557d4e2-8170-4f4d-9e87-97d5b12bf440"
   data-name="couleur"
   viewBox="0 0 873.33 737.33"
   version="1.1"
   sodipodi:docname="Bouchon.svg"
   inkscape:version="1.2.2 (732a01da63, 2022-12-09)"
   xmlns:inkscape="http://www.inkscape.org/namespaces/inkscape"
   xmlns:sodipodi="http://sodipodi.sourceforge.net/DTD/sodipodi-0.dtd"
   xmlns="http://www.w3.org/2000/svg"
   xmlns:svg="http://www.w3.org/2000/svg">
  <sodipodi:namedview
     id="namedview370"
     pagecolor="#ffffff"
     bordercolor="#000000"
     borderopacity="0.25"
     inkscape:showpageshadow="2"
     inkscape:pageopacity="0.0"
     inkscape:pagecheckerboard="0"
     inkscape:deskcolor="#d1d1d1"
     showgrid="false"
     inkscape:zoom="1.1731518"
     inkscape:cx="436.85737"
     inkscape:cy="368.665"
     inkscape:window-width="1920"
     inkscape:window-height="1027"
     inkscape:window-x="-8"
     inkscape:window-y="-8"
     inkscape:window-maximized="1"
     inkscape:current-layer="e557d4e2-8170-4f4d-9e87-97d5b12bf440" />
  <defs
     id="defs279">
    <style
       id="style277">.b503e069-78e3-4d72-a672-9fa7311f376a{fill:#e16ca6;}.ae69cd4a-4bee-431e-a35f-45cb8496580b{fill:#e61c81;}</style>
  </defs>
  <path
     class="ae69cd4a-4bee-431e-a35f-45cb8496580b"
     d="m 31.795803,53.401179 c -5.34,1.15 -12.42,-1.43 -14,-5.74 a 15.16,15.16 0 0 1 -0.59,-6.64 c 0.38,-3.45 0,-6.43 -2.2,-9.3 -2.81,-3.62 -2.11,-9.38 1.35,-13.92 a 12.35,12.35 0 0 1 11.09,-5.25 32.66,32.66 0 0 1 12.67,3.42 c 6,3 7.23,10 5.69,15.24 -0.42,1.44 -1.94,2.54 -2.83,3.87 a 25.42,25.42 0 0 0 -2.17,3.79 c -1.61,3.59 -2.89,7.36 -4.76,10.8 -0.82,1.57 -2.76,2.53 -4.25,3.73 z m 3.27,-23 c 0.63,-3.75 -0.08,-6.92 -3,-9.25 a 8.07,8.07 0 0 0 -9.14,-0.94 c -1.88,0.91 -3.38,2.56 -3.21,4.73 0.17,2.17 2.15,2.72 4,3.11 3.77,0.83 7.51,1.58 11.39,2.35 z m -12.73,6 c 0,1.68 -0.14,3.15 -0.1,4.62 0.08,3 1.33,4.48 4.28,5.07 4.34,0.86 8.61,-3.63 7.52,-8 a 1.45,1.45 0 0 0 -0.93,-0.94 c -3.48,-0.22 -7.01,-0.43 -10.73,-0.69 z"
     id="path299" />
</svg>
