<svg id="e557d4e2-8170-4f4d-9e87-97d5b12bf440" data-name="couleur" xmlns="http://www.w3.org/2000/svg" viewBox="0 0 873.33 737.33"><defs><style>.b503e069-78e3-4d72-a672-9fa7311f376a{fill:#e16ca6;}.ae69cd4a-4bee-431e-a35f-45cb8496580b{fill:#e61c81;}</style></defs><path class="b503e069-78e3-4d72-a672-9fa7311f376a" d="M578,602.51c-26.27,4.24-52.27,8.62-77.82,12.72,27.56-.57,55.27-2.08,83.07-4Z" transform="translate(-190.38 -78.03)"/><path class="b503e069-78e3-4d72-a672-9fa7311f376a" d="M595.33,631.41l-4.08-6.8-.85-1.43c-50.87,6.07-101.31,12.16-150.51,15.08a996.27,996.27,0,0,1-192.81-9.72c116.07,38,235.75,28.38,355.45,14.84Z" transform="translate(-190.38 -78.03)"/><path class="b503e069-78e3-4d72-a672-9fa7311f376a" d="M695,630.46l-3.6-5.33-8.22-12.24c-23.57,2.25-47.16,4.91-70.68,7.67l5.19,8.73,6.9,11.57c24-2.78,48-5.6,71.94-8.13Z" transform="translate(-190.38 -78.03)"/><path class="b503e069-78e3-4d72-a672-9fa7311f376a" d="M672.29,596.69l-.29-.43-4.65-6.91c-22.65,2.89-45.23,6.21-67.64,9.71q2.82,4.73,5.62,9.47l.63,1.05c23.7-1.79,47.45-3.77,71.2-5.62Q674.73,600.31,672.29,596.69Z" transform="translate(-190.38 -78.03)"/><path class="b503e069-78e3-4d72-a672-9fa7311f376a" d="M754.35,583.84l4.73,4.48,8.24,7.79,2.12,2c100-4.1,199.17,1.59,294.27,41.46-95.84-55.12-203.49-65.35-312.25-58.47Z" transform="translate(-190.38 -78.03)"/><path class="b503e069-78e3-4d72-a672-9fa7311f376a" d="M739.94,594.94l-.31-.29c-4.11-3.85-8.37-7.83-12.56-11.73q-19.29,1.64-38.57,3.86l1.39,2.1c1.38,2.09,2.77,4.17,4.15,6.25l4.77,7.18c15.27-1.12,30.54-2.15,45.79-3Z" transform="translate(-190.38 -78.03)"/><path class="b503e069-78e3-4d72-a672-9fa7311f376a" d="M781.39,609.39l2.75,2.6,5.76,5.43,2,1.9,5.89,5.53c87.13-3.51,173.2,3.74,256.8,39.07-86.44-47.4-180.2-59.27-275.91-57.07Z" transform="translate(-190.38 -78.03)"/><path class="b503e069-78e3-4d72-a672-9fa7311f376a" d="M765.8,619.18l-4.11-3.84-8.11-7.6c-16.3.76-32.64,1.87-49,3.24,1.57,2.34,3.13,4.69,4.7,7l4.29,6.44,2.4,3.6c.56.85,1.12,1.69,1.69,2.53,18.55-1.79,37.07-3.34,55.55-4.47C770.74,623.79,768.24,621.45,765.8,619.18Z" transform="translate(-190.38 -78.03)"/><path class="ae69cd4a-4bee-431e-a35f-45cb8496580b" d="M879.18,698a15.09,15.09,0,0,0-2.75-8.17,76.48,76.48,0,0,0-8.23-10.16,160.92,160.92,0,0,0-12.77-12.42,157.94,157.94,0,0,0-15.74-11.85c-2.38-1.55-4.78-3-7.28-4.4a54.3,54.3,0,0,0-6-2.72,79,79,0,0,0-10.19-3.17,23.94,23.94,0,0,1-6.22-2.22,17.63,17.63,0,0,1-3.27-2.29c-3.06-2.82-6.16-5.61-9.22-8.45-3.82-3.54-7.61-7.12-11.41-10.69l-8.52-8-14.07-13.28-8.24-7.79-12-11.36q-4.62-4.38-9.27-8.73l-3.24-3.07a887,887,0,0,1,103.69-2.77c2.73-2.58,3.15-5.17,6.08-10,15.23-25.3,20.14-54.24,20.34-83.66A168.33,168.33,0,0,0,854.27,424c-.4-1.38-1.58-2.54-2.39-3.81-1.1,1.06-2.57,1.92-3.23,3.2-7.55,14.68-18.48,26.32-32,35.56s-28.73,15.52-43.72,22c-12.57,5.48-25.41,10.62-39.06,12.3-4.36.54-8.82,1-13.35,1.39.33.35.63.7,1,1.06.58.66,1.21,1.31,1.87,2s1.24,1.29,1.86,2q2.35,2.56,4.68,5.16l2.9,3.19a6.82,6.82,0,0,1,1.77,3.76c.49,3.55-1.57,6-2.68,7.32-.18.22-.41.49-.5.62-1.62,2.31-3.23,4.61-4.87,6.92a5.35,5.35,0,0,1-3.28,2.33,5.49,5.49,0,0,1-1.08.11c-3,0-4.73-2.36-5.37-3.24l-.12-.17-2.27-2.58L703,510.1c-3,3.39-6.07,6.88-9.14,10.3-1.24,1.39-2.54,2.73-3.79,4l-1.23,1.28a9.59,9.59,0,0,1-4.42,2.82,4.91,4.91,0,0,1-3.41-.46,7.11,7.11,0,0,1-2.49-2.25l-.07-.1c-.73-1-1.37-1.85-1.95-2.7-.9-1.31-1.79-2.64-2.69-4l-1.69-2.49-.38-.54a6.18,6.18,0,0,1,.64-7.88l.91-.86c.51-.46,1-.91,1.35-1.3l9.17-9.76c-19.71.12-40.23-.8-60.85-2.57.61.83,1.24,1.66,1.92,2.54s1.4,1.84,2.1,2.8q2.66,3.63,5.27,7.26l3.26,4.51a9.47,9.47,0,0,1,1.86,5.11c.32,4.72-2.37,7.72-3.81,9.33-.24.27-.54.6-.66.77q-3.2,4.28-6.43,8.56a6.29,6.29,0,0,1-4.16,2.71,5.66,5.66,0,0,1-1.3,0c-3.68-.35-5.55-3.59-6.26-4.81l-.14-.24L612,528.6q-6.42-9.14-12.84-18.27c-3.88,4.14-7.87,8.39-11.86,12.56-1.61,1.69-3.29,3.31-4.9,4.88l-1.59,1.54c-1.08,1.06-3.24,2.9-5.57,3.24a5.65,5.65,0,0,1-4.09-1,9.36,9.36,0,0,1-2.84-3.21l-.09-.14c-.81-1.35-1.51-2.57-2.14-3.74-1-1.83-2-3.66-3-5.49-.61-1.15-1.23-2.3-1.85-3.45-.11-.21-.42-.74-.42-.75a8.57,8.57,0,0,1,1.39-10.27c.37-.34.77-.69,1.17-1,.64-.56,1.25-1.09,1.73-1.57q6.68-6.65,13.34-13.32c-23.58-3.31-46.55-7.52-67.78-12.3l-.32.41c1.66,2.94,3.39,6,5.26,9.24.69,1.21,1.44,2.44,2.23,3.73s1.48,2.44,2.22,3.71q2.79,4.8,5.54,9.61l3.42,5.95a11.83,11.83,0,0,1,1.64,6.45c-.18,5.69-3.81,8.8-5.75,10.48-.33.28-.73.62-.9.8-2.94,3-5.88,6.07-8.85,9.11a7.33,7.33,0,0,1-5.39,2.51,7.2,7.2,0,0,1-1.59-.19c-4.43-1.07-6.32-5.27-7-6.86,0-.1-.09-.2-.14-.3l-2.66-4.78q-6.69-12-13.4-24.08c-5.23,4.26-10.6,8.64-15.95,12.93-2.16,1.73-4.39,3.38-6.55,5l-2.12,1.56c-1.44,1.09-4.29,2.9-7.16,2.9a7.25,7.25,0,0,1-4.86-1.88,11.86,11.86,0,0,1-3.07-4.33l-.09-.18c-.82-1.76-1.53-3.34-2.16-4.86q-1.47-3.53-2.93-7.07l-1.83-4.45-.43-1c-1.9-4.3-.61-9.63,2.93-12l1.54-1c.86-.56,1.67-1.09,2.3-1.57q9.64-7.33,19.27-14.69l3.75-2.86c-.54-1.27-1.06-2.57-1.56-3.87-24-7.27-43.35-15.08-55.21-22.59-11.44-7.24-21.28-16.5-30.21-26.64a191.8,191.8,0,0,1-29-44.05L348,373.15l-10,4.91c-10.69,5.23-21.74,10.64-32.4,16.21-.57.3-1.13.6-1.68.91a47.57,47.57,0,0,0-24.08,37.34v.18q-.7,7.92-.89,15.5a127.12,127.12,0,0,0,3.27,26.13c6.67,28.34,23,50.57,44.1,69.77,17,15.47,36.59,27.22,56.24,38.95,12.95,7.73,26.73,8.56,41.52,10.34,36,4.33,67.27,6.71,99.2,4.53,17.55-2.88,35.27-5.82,53.13-8.7.61,1,1.22,2,1.84,3.06q6.21,10.25,12.37,20.52c3.16,5.24,6.29,10.5,9.44,15.74q5.63,9.39,11.27,18.76c3.88,6.45,7.79,12.89,11.65,19.36q6.38,10.71,12.89,21.34c2.42,4,4.82,8,7.11,12,1.14,2,2.45,4,3.47,6a23.16,23.16,0,0,1,1.64,5.83c.73,3.65.39,7.31.41,11a102,102,0,0,0,1.83,21A106.84,106.84,0,0,0,656.24,762a118.74,118.74,0,0,0,11.35,20.61,121.66,121.66,0,0,0,9,11.61,85.91,85.91,0,0,0,10.55,10.08,77.93,77.93,0,0,0,12.37,8.26c3.76,2,7.77,3.28,12.06,2.64a18.41,18.41,0,0,0,14-9.38,12.42,12.42,0,0,0,1.38-3.95,20.39,20.39,0,0,0-.56-11.62A103.18,103.18,0,0,0,719.46,774a201.67,201.67,0,0,0-28.05-42c-2.52-2.9-5.09-5.73-7.82-8.4a75,75,0,0,0-6.82-5.76A109.09,109.09,0,0,0,664.7,710a33.24,33.24,0,0,1-7.25-5.17,23.58,23.58,0,0,1-3.39-4.18c-2.94-4.8-5.94-9.56-8.86-14.37-3.65-6-7.25-12.06-10.87-18.09q-4.05-6.79-8.09-13.58-6.68-11.22-13.37-22.43Q609,625.56,605.05,619l-11.37-19.16q-3.63-6.1-7.28-12.18c26.06-4.15,52.36-8.11,78.76-11.48.13.17.24.35.36.53q5.73,8.45,11.4,16.9,4.35,6.49,8.69,13Q690.8,614.3,696,622c3.57,5.31,7.17,10.61,10.72,15.94q5.88,8.84,11.87,17.59c2.23,3.26,4.44,6.54,6.56,9.88,1.06,1.66,2.25,3.25,3.21,5a20.42,20.42,0,0,1,1.65,4.89c.76,3.06.63,6.19.81,9.3a87.13,87.13,0,0,0,2.46,17.75A90.09,90.09,0,0,0,739,717.55a100.73,100.73,0,0,0,10.52,17,103.71,103.71,0,0,0,8.19,9.47,71.89,71.89,0,0,0,9.39,8.12A66.43,66.43,0,0,0,778,758.66a16.32,16.32,0,0,0,10.36,1.72,15.63,15.63,0,0,0,11.47-8.57,10.53,10.53,0,0,0,1-3.42,17.37,17.37,0,0,0-1-9.85,89,89,0,0,0-6.59-13.49,183.77,183.77,0,0,0-11.1-17.19,177.92,177.92,0,0,0-14.55-17.31c-2.26-2.36-4.57-4.65-7-6.81a64.65,64.65,0,0,0-6-4.6A93,93,0,0,0,744,673a27.86,27.86,0,0,1-6.39-4.08,20.27,20.27,0,0,1-3.06-3.41c-2.71-4-5.46-7.87-8.14-11.83-3.37-4.95-6.69-9.93-10-14.91q-3.74-5.58-7.46-11.19-6.15-9.24-12.32-18.48l-7.21-10.85q-5.25-7.9-10.49-15.8L674,575q23.7-2.91,47.46-5,4.63,4.39,9.33,8.76,6.5,6,13,12.11,5,4.65,9.91,9.32l11.84,11.08c4.07,3.82,8.16,7.61,12.22,11.44q6.72,6.35,13.51,12.6c2.53,2.34,5,4.69,7.5,7.1,1.22,1.21,2.54,2.32,3.69,3.59a17.86,17.86,0,0,1,2.36,3.83c1.25,2.45,1.75,5.13,2.51,7.73a75.47,75.47,0,0,0,5.55,14.59,79.18,79.18,0,0,0,7.86,11.78A89.18,89.18,0,0,0,833,696.32a91,91,0,0,0,8.8,6.44,62.78,62.78,0,0,0,9.56,5,57.37,57.37,0,0,0,10.5,3.38,14.12,14.12,0,0,0,9.12-.56,13.64,13.64,0,0,0,8.06-9.51A9.09,9.09,0,0,0,879.18,698Zm-219.13,23.1c1.7-1,11.88,12.31,22.72,29.84s18.27,32.59,16.57,33.65-11.87-12.31-22.72-29.84S658.36,722.18,660.05,721.12Zm80.47-38.46c1.4-1,10.62,10,20.59,24.38S778,734,776.63,734.92,766,725,756.05,710.54,739.13,683.63,740.52,682.66ZM856,691.32c-1,1.09-11-6.37-22.24-16.67S814.15,655.12,815.14,654s11,6.37,22.24,16.66S857,690.22,856,691.32Z" transform="translate(-190.38 -78.03)"/><path class="ae69cd4a-4bee-431e-a35f-45cb8496580b" d="M922,209c-5.34,1.15-12.42-1.43-14-5.74a15.16,15.16,0,0,1-.59-6.64c.38-3.45,0-6.43-2.2-9.3-2.81-3.62-2.11-9.38,1.35-13.92a12.35,12.35,0,0,1,11.09-5.25,32.66,32.66,0,0,1,12.67,3.42c6,3,7.23,10,5.69,15.24-.42,1.44-1.94,2.54-2.83,3.87a25.42,25.42,0,0,0-2.17,3.79c-1.61,3.59-2.89,7.36-4.76,10.8C925.43,206.84,923.49,207.8,922,209Zm3.27-23c.63-3.75-.08-6.92-3-9.25a8.07,8.07,0,0,0-9.14-.94c-1.88.91-3.38,2.56-3.21,4.73s2.15,2.72,4,3.11C917.69,184.48,921.43,185.23,925.31,186Zm-12.73,6c0,1.68-.14,3.15-.1,4.62.08,3,1.33,4.48,4.28,5.07,4.34.86,8.61-3.63,7.52-8a1.45,1.45,0,0,0-.93-.94C919.83,192.53,916.3,192.32,912.58,192.06Z" transform="translate(-190.38 -78.03)"/><path class="ae69cd4a-4bee-431e-a35f-45cb8496580b" d="M911.76,301.79c-1-5.63.13-10.65,1.09-15.64,4-20.89,14.57-37.75,31.44-50.68a16.67,16.67,0,0,1,2.1-1.4,4.72,4.72,0,0,1,6.18.89c1.76,1.93,2.13,4.38.56,6.39a45,45,0,0,1-4.85,5c-13,12.1-23.71,25.9-31.27,42-1.7,3.63-3,7.46-4.45,11.2C912.33,300.18,912.13,300.77,911.76,301.79Z" transform="translate(-190.38 -78.03)"/><path class="ae69cd4a-4bee-431e-a35f-45cb8496580b" d="M898,285.28c-.66-2.84-1.41-5.65-1.94-8.5-1.1-5.89-3.92-11.11-6.37-16.45-4.27-9.29-8.74-18.49-13.1-27.73a17.86,17.86,0,0,1-.92-2.57c-1-3.57.24-6.51,3.32-7.71a6.23,6.23,0,0,1,8,3.3,136.33,136.33,0,0,1,9.34,24.28,86.81,86.81,0,0,1,2.95,32.27,26.08,26.08,0,0,1-.72,3.12Z" transform="translate(-190.38 -78.03)"/><path class="ae69cd4a-4bee-431e-a35f-45cb8496580b" d="M895,308.29a13.61,13.61,0,0,1-.87-1.7c-5.81-16.71-13.82-32.37-23-47.42-2.33-3.79-5.11-7.31-7.72-10.93-1.85-2.56-1.75-4.7.39-6.51s4.66-1.65,6.32.54c10.3,13.58,19,28,22.36,45,1.24,6.28,2.18,12.62,3.22,18.94a10,10,0,0,1-.09,2Z" transform="translate(-190.38 -78.03)"/><path class="ae69cd4a-4bee-431e-a35f-45cb8496580b" d="M917.5,223.38c0,1.18,0,2.15-.14,3.1q-5.58,38.16-11.19,76.3c-.19,1.29-.33,2.58-.61,3.84a5.89,5.89,0,0,1-.85,1.49,4.74,4.74,0,0,1-.61-1.59c0-5.3.21-10.6.23-15.91.09-21.66,2.6-43.13,5-64.62.45-4.07,2.9-5.7,6.18-4.23A10.4,10.4,0,0,1,917.5,223.38Z" transform="translate(-190.38 -78.03)"/><path class="ae69cd4a-4bee-431e-a35f-45cb8496580b" d="M946.25,265.7l1.64-.18c1.55-.15,3.34-.53,4.09,1.27s-.08,3.32-1.26,4.63a12.37,12.37,0,0,1-2.21,1.87c-10.62,7.34-19.06,16.84-26.79,27-2,2.58-3.73,5.3-5.63,7.91a4.6,4.6,0,0,1-1.26.86c-.07-.49-.32-1.06-.17-1.47,6-15.69,14.93-29.22,28.38-39.53C944.16,267.22,945.31,266.4,946.25,265.7Z" transform="translate(-190.38 -78.03)"/><path class="ae69cd4a-4bee-431e-a35f-45cb8496580b" d="M954,252.63a4.12,4.12,0,0,1,5.34,2.5c.87,2.54-.18,4.6-2.78,5.47a4.18,4.18,0,0,1-5.33-2.87C950.52,255.31,951.52,253.46,954,252.63Z" transform="translate(-190.38 -78.03)"/><path class="ae69cd4a-4bee-431e-a35f-45cb8496580b" d="M901.54,213.06c.62,2.32-.22,3.84-2.44,4.44s-4.74-.54-5.24-2.45a4.7,4.7,0,0,1,3.16-5.14C899.1,209.37,900.89,210.62,901.54,213.06Z" transform="translate(-190.38 -78.03)"/><path class="ae69cd4a-4bee-431e-a35f-45cb8496580b" d="M965.65,230.91c.64,2-.39,3.68-2.8,4.48a3.46,3.46,0,0,1-4-2.27,3.68,3.68,0,0,1,2.19-4.57A3.46,3.46,0,0,1,965.65,230.91Z" transform="translate(-190.38 -78.03)"/><path class="ae69cd4a-4bee-431e-a35f-45cb8496580b" d="M870.6,228.71a3.33,3.33,0,0,1-2.33,4.11,2.93,2.93,0,0,1-3.53-1.62c-.55-1.73.4-3.94,1.89-4.4A3.18,3.18,0,0,1,870.6,228.71Z" transform="translate(-190.38 -78.03)"/><path class="ae69cd4a-4bee-431e-a35f-45cb8496580b" d="M943.54,197.44a2.89,2.89,0,0,1,3.89,1.86,3.43,3.43,0,0,1-2,4.15c-1.35.43-3.26-.78-3.73-2.35C941.19,199.23,941.8,198,943.54,197.44Z" transform="translate(-190.38 -78.03)"/><path class="ae69cd4a-4bee-431e-a35f-45cb8496580b" d="M886.12,202.94c-1.35.29-2.49,0-3-1.38a2.94,2.94,0,0,1,1.61-3.35,2.8,2.8,0,0,1,3.43,1.71C888.53,201.6,887.45,202.37,886.12,202.94Z" transform="translate(-190.38 -78.03)"/><path class="ae69cd4a-4bee-431e-a35f-45cb8496580b" d="M928.73,434.29c-2.21-6.29-5.18-12.31-7.65-18.51-3.44-8.65-6.27-17.52-5.91-27,.6-15.77,1.47-31.53,2.31-47.29a3.87,3.87,0,0,1,1.24-2.45,9.64,9.64,0,0,0,3.44-6.35,51.16,51.16,0,0,0,.34-7.92c-.21-4.32-2.85-7.46-7.13-8-6.86-.83-13.77-1.46-20.68-1.73-4.81-.19-7.86,2.95-9.92,7s-2.32,7.91.18,12a14.77,14.77,0,0,1,2.44,7c.29,16-2.39,31.49-9.27,46.07-3.93,8.32-9.39,15.67-14.64,23.15q-1.59,2.26-3.15,4.53l.37.49a17.48,17.48,0,0,1,3.17,5.85c.24.82.47,1.65.7,2.47,2.16-3.34,4.44-6.6,6.79-9.79,9.78-13.33,15-28.46,18.4-44.4a135.81,135.81,0,0,0,3-29.88c0-.77.05-1.53.08-2.48a57.87,57.87,0,0,1,6.12,1.62c.55.2,1,1.36,1,2.11.67,8.9.49,17.83-2,26.4-3.38,11.56-7.06,23.06-11.21,34.36A404.81,404.81,0,0,0,870.32,457c.39,5.19.58,10.46.54,15.78,0,5.74-.27,11.29-.67,16.68l54.59,9.06c-1.77,14.07-3.54,28-5.31,42.08l-58.2-5.38c-.33,1-.65,1.92-1,2.87l1.41.17c-.42,3.14-.8,6.13-1.22,9.11-.7,5-1.38,10-2.15,15-.51,3.36-2,4.51-5.37,3.94-1.93-.33-3.84-.76-5.73-1.24-.08.14-.15.29-.22.43a37,37,0,0,1-2.6,4.62,23.21,23.21,0,0,0,3.12,1c6.52,1.61,13.21,2.58,19.84,3.76,13,2.31,26,4.37,39.33,4.08a6.15,6.15,0,0,0,2.29-.2c5.35-2.38,10.2-5.56,12-11.44,3.27-10.72,6.52-21.5,7.68-32.69,2-18.93,3.8-37.87,5.36-56.84A104.53,104.53,0,0,0,928.73,434.29ZM913.24,565c-.92,3-3.59,5.29-7,6.76L912,545.07l6.51.86C916.73,552.43,915.14,558.75,913.24,565Zm-.11-242.74c4.33.54,5.51,2,5,6.2-.1.71-.23,1.41-.37,2.11-.62,3.17-1.21,3.59-4.67,3.23C913.07,329.83,913.1,326,913.13,322.23Zm-20.75,8.59a3.86,3.86,0,0,1-2-2.71,14.37,14.37,0,0,1,.37-4.59c.25-1.47,1.44-1.95,2.75-2,3.15,0,6.31,0,9.7.06.19,4,.38,7.85.58,12C899.86,332.71,896.06,332,892.38,330.82Zm34,149.87c-.36,2.94-.64,5.89-1,9l-7.85-1c.22-2.22.39-4.32.65-6.41a118.43,118.43,0,0,0-2.23-40.9c-1.53-6.7-3.46-13.3-5.21-19.94a134.82,134.82,0,0,1-4.09-35.39c0-11.32-.34-22.64-.39-34a57.54,57.54,0,0,1,.81-8.68c.44-2.92,1.23-3.43,4.21-3.3.83,0,1.67.12,2.73.2-.07.89-.11,1.7-.19,2.51-1.32,13.78-2.91,27.55-3.91,41.37-.86,11.92,1.77,23.4,6.81,34.16C926.07,438.25,929.06,459,926.4,480.69Z" transform="translate(-190.38 -78.03)"/><path class="ae69cd4a-4bee-431e-a35f-45cb8496580b" d="M194.41,481.58l5.89-7.77c2.56,5.68,4.7,10.46,6.88,15.23s4.42,9.5,6.64,14.25l1-.34c-.24-1.09-.41-2.21-.73-3.28C208,479,206.2,458.14,211.28,437c5.29-22,14-42.63,27.06-61.18,10.36-14.66,24.14-25.72,39.37-34.88,13.32-8,27.06-15.35,40.6-23,1.59-.91,3.11-1.94,5.66-3.55a20.77,20.77,0,0,0-3.38-.69c-12,.22-24.07.37-36.1.8-4.3.15-8.71.55-12.24,3.57a23.27,23.27,0,0,0-2,2.24c6.13,1.81,12.73-1.14,17.89,3.33-.09,3.23-2,4.67-4.52,5.67q-19,7.45-38,15c-5.22,2.06-10.53,3.93-15.61,6.28a19.76,19.76,0,0,0-11.32,12.54c2.11-1.06,3.46-1.83,4.88-2.42a19.51,19.51,0,0,1,4.95-1.75c3.1-.4,6.39-.16,8.09,2.92a7,7,0,0,1-1.48,8.87c-5.12,4.56-10.48,8.9-16,12.93-2.95,2.14-6.56,3.35-9.78,5.15-4.2,2.35-7.88,5.28-10.22,10.34,2.07-.12,3.62-.25,5.19-.3a29.79,29.79,0,0,1,5.26,0c6.74,1.07,9,6.53,4.8,12a44.31,44.31,0,0,1-6.61,6.29c-3.42,2.91-7.12,5.5-10.41,8.54a21.93,21.93,0,0,0-6.91,11.94c1.92-.45,3.07-.76,4.24-1,2-.39,4.06-1.08,6.08-1,4,.1,6,2.38,5.46,6.28a32.48,32.48,0,0,1-2.74,8.13c-1.88,4.24-4,8.38-6.08,12.55-2.14,4.33-3.94,8.78-4.11,13.7-.06,1.69,0,3.39,0,5.09Z" transform="translate(-190.38 -78.03)"/><path class="ae69cd4a-4bee-431e-a35f-45cb8496580b" d="M413.46,352.57c-.07-3.25-.11-6.51-.17-9.75-4.79,2.68-9.88,5.49-14.64,8.07s-9.18,4.9-13.86,7.45c-.2-.3-.43-.59-.62-.89.77-.75,1.68-1.51,2.55-2.21,16.67-13.43,31.35-28.45,38.78-48.75,7.73-21.13,12.08-43.33,11-65.69-.88-17.67-9.28-33-17.75-48.13-7.41-13.26-19.73-21.2-30.83-31.3-1.3-1.19-3.41-3.11-4.69-4.5a16.47,16.47,0,0,1,3.28-.05c12,2.59,23.48,4.62,35.19,8.06,4.19,1.22,7.88,2.94,10.68,6.53a19.61,19.61,0,0,1,1.33,2.63c-6.23-.31-11.62-3.32-17.79-1.22-.53,2.88.47,4.76,2.43,6.68,9.71,9.52,17.89,19.95,27.07,30,3.78,4.14,7.57,8,11.14,12.73a21.35,21.35,0,0,1,4.28,16.13c-1.06-1.37-2.07-3-3.22-4.29a18.4,18.4,0,0,0-3.64-3.73c-2.72-1.74-5.56-2.87-8.51-.92a7.47,7.47,0,0,0-3.2,8.53c1.84,6.72,3.82,13.1,6.11,19.69,1.21,3.5,3.46,6.36,5.21,9.78a25.35,25.35,0,0,1,3.08,14.13c-1.42-1-2.78-2.13-4.23-3.07s-2.85-2.25-4.48-2.82c-6.4-2.24-10.48.45-10.34,7.35.06,3,1.28,5.94,2.09,8.9,1.19,4.38,2.92,8.35,4,12.93a24.17,24.17,0,0,1-.8,13.64c-.92-.91-2.08-2.26-3-3.09-1.56-1.45-2.8-3.19-4.55-4.17-3.44-1.91-6.13-1.29-8,2.21-1.34,2.51-1.83,5.41-2.43,8.23-1,4.59-1.6,9.1-2.49,13.81A37.79,37.79,0,0,1,417.55,349c-.9,1.42-2,2.74-3,4.13Z" transform="translate(-190.38 -78.03)"/><path class="b503e069-78e3-4d72-a672-9fa7311f376a" d="M323.39,149a5.39,5.39,0,0,0-4-.9c-4.3.74-6.5,4-8.1,7.69-2.41,5.53-3.11,11.41-3.26,17.39,0,.11,0,.22,0,.34h0c0,2-.12,4,2.37,2.05l7.62-6.5c-1.65-3.09-2.14-6.21-.65-9.32a3.83,3.83,0,0,1,2.5-2c.67-.08,1.87,1.11,2.16,2a52.72,52.72,0,0,1,1.36,6.46c1.8-1.59,4.42-2.79,4.61-4.29C328.63,157.07,327.31,152.4,323.39,149Z" transform="translate(-190.38 -78.03)"/><path class="ae69cd4a-4bee-431e-a35f-45cb8496580b" d="M300.26,127c13,0,22-8.09,32.76-11.27l-8.46,6.9a1,1,0,0,0,.44,1.83,6.32,6.32,0,0,0,6.34-1.65c6.65-6.8,15.23-9.09,24.07-11.08a141.66,141.66,0,0,0,15.25-4.34c6.34-2.19,10.3-6,13.48-12.66-8.16,5.25-16.55,7.7-25.08,9.68-9.2,2.14-18.53,3.79-27.67,6.19a156.13,156.13,0,0,0-19.95,6.77C307.18,119.1,303.66,122.27,300.26,127Z" transform="translate(-190.38 -78.03)"/><path class="ae69cd4a-4bee-431e-a35f-45cb8496580b" d="M367,156.51v0a130.23,130.23,0,0,0-14.68-13.91c9.74-3.45,19.88-2.91,30.16-2a191.29,191.29,0,0,0,21.41.69c9.07-.2,15.73-3.46,22.57-10.72C413.8,134,402,133.69,390.2,132.73c-12.73-1-25.41-2.76-38.15-3.45-6.79-.36-13.62-.34-20.43,0a38.3,38.3,0,0,0-13.95-3.51c-5.42-.25-10.45.9-14.69,4.53-2.77,2.36-5.83,4.61-4.14,9.29a12.16,12.16,0,0,1-2.5-1.45,8.86,8.86,0,0,0-8.85-1.28c-1.63.63-3,1.93-4.52,2.9-9,5.77-9.55,16.12-1.12,22.53a8.82,8.82,0,0,1,1.85,1.4c.55.74,1.33,1.81,1.15,2.51-2.79,10.95-7.75,20.74-15.7,28.9-1.2,1.23-2.06,1-3.47.08a56.68,56.68,0,0,0-10.47-6.09c-1.85-.74-4.71-.19-6.64.75-4.45,2.17-7.22,9-6.28,13.94a7.15,7.15,0,0,1-.3,2.15l-1.19,0c-.33-2.62-.67-5.24-1-7.94-4.87-1.54-9.13.83-11.42,6.48a15.22,15.22,0,0,1-1.2,2.05l-1-.47c.73-2.05,1.47-4.1,2.23-6.22-1.31-.11-2.48-.2-3.64-.31-6-.55-9.05,1.79-9.82,7.65a16.67,16.67,0,0,0,.07,5.23,32.25,32.25,0,0,1-3.05,20.7,16.9,16.9,0,0,0-1.63,5,2.59,2.59,0,0,0,2.51,3l1.1-.71a14.9,14.9,0,0,1,12.37-1.93c4.25,1.15,8.5,2.58,12.6,4,2.58.88,5.25,1.78,7.89,2.6a9.42,9.42,0,0,0,4.8.48c8.51-2,13.76-7.74,16.05-17.59l1.1-4.75.41.17c4.59,1.92,8.35.94,12.19-3.16l.46-.47a5.7,5.7,0,0,0,1.17-1.44c1.19-2.42,3.24-2.64,5.41-2.66,11-.1,20.49-2.17,29-6.35,10.18-5,16.44-12.43,19.13-22.62l-6.75.5.77-.73c3.62-3.42,10.75-3.22,14-.64,2.06,1.61,2.43,2.82,1.41,4.65l-.26.45-.34-.38c-.29-.31-.57-.63-.85-.95-1.42-1.65-2.76-3.21-5.27-2.87a36.51,36.51,0,0,1-15.72,22.06c-9.26,6-20.18,9-34.38,9.42a4.91,4.91,0,0,0-4.37,2c-4.09,5.41-8.6,7.49-14.15,6.51l-.14.6c-.13.62-.25,1.18-.39,1.74-2.72,10.74-8.64,17-18.1,19a8.19,8.19,0,0,1-1.82.19,11.26,11.26,0,0,1-4.22-.84l-1.43-.6c-6.3-2.63-12.82-5.36-19.82-6a13.77,13.77,0,0,0-8.5,1.37c3.52,2.2,6.93,4.28,10.28,6.45,3.51,2.28,6.92,4.7,10.44,6.95a24.31,24.31,0,0,0,4,1.87c12.12,4.94,21.64.72,26.56-11.46,4.69-11.63,19-22.51,35.06-16.68,9,3.29,18.37,6.1,28.17,5.77,17.59-.6,30.11-8.1,38-18.72,9.14-17.15,9.73-31.79,9.73-31.79,2.66,5.64,2.16,21.36-6.45,35.84.47.65.94,1.32,1.39,2,6.69,10.13,8.18,21.3,6.8,33.19-1.6,13.85-13.52,32.68-24.62,43.22-7.52,7.15-16.75,11.8-25.56,17.06-17.9,10.69-36,21.11-53.58,32.28-20.15,12.78-36.27,29.5-46.58,51.35-6.42,13.63-9.8,28.09-11.63,43a152.47,152.47,0,0,0-1.22,23c.24,32.92,13.46,60,38.51,81.65,19.64,17,42.44,28.11,67.11,35.69,18.26,5.61,37,8.71,56,10.39a4.16,4.16,0,0,0,1.83-.42.78.78,0,0,0,.4-1.08,4.57,4.57,0,0,0-1.1-1.51c-2.41-1.8-4.67-3.94-7.41-5.16-10.34-4.62-34.6-19.37-38-22.21-10-8.28-20.13-16.47-29.2-25.69-28.76-29.21-39.09-64.94-35.52-105.18l0-.2a58.12,58.12,0,0,1,29.38-45.51c.64-.36,1.29-.71,1.94-1.05,14.06-7.34,28.37-14.22,42.61-21.23,15.24-7.51,30.3-15.18,44.82-24.22C423.78,317.43,470.55,209.21,367,156.51ZM257.42,219.08a2.61,2.61,0,0,1-2.34,0c-2.39-1.58-5.41-16.87-3.13-20q1.8,8.2,3.61,16.41l.78-.14c.43-1.76.87-3.51,1.4-5.66C259.62,212.24,259.28,217.8,257.42,219.08ZM375,169.44a17,17,0,0,0-1.48-1.8l-.17-.18c-.21-.22-.43-.45-.68-.69a25,25,0,0,0-4.79-3.61c-.35-.21-.73-.42-1.12-.63l-.15-.09-.06,0h0c-.51-.27-1-.54-1.59-.79-8.72-4-17.57-3.84-26.48-.95-10.57,3.43-19.41,9.76-27.72,16.93a19.54,19.54,0,0,1-2.55,1.6l-.78-1-.89-2.1c0-2.43-.16-4.88,0-7.31.48-6.26,1.59-12.38,5.34-17.65,2.34-3.29,5.59-5.56,9.62-5.07,3.84.47,5.77,3.83,7,7.19a74,74,0,0,1,2,8.58c12.09-5.55,24.16-7.27,36.19-1.3v0c3.79,2.32,7.73,8,8.3,8.87l.07.11Z" transform="translate(-190.38 -78.03)"/><path class="ae69cd4a-4bee-431e-a35f-45cb8496580b" d="M662.4,375.84a44.41,44.41,0,0,1-11.48,2.09,48.3,48.3,0,0,1-10.83-.72A53.57,53.57,0,0,1,630,374.28a86.11,86.11,0,0,1-9.39-4.46,98.51,98.51,0,0,1-8.59-5.34q-4.1-2.85-7.78-5.57a24.36,24.36,0,0,0,6.62-7.23,54.22,54.22,0,0,0,4.57-9.51,104.51,104.51,0,0,0,3.26-10.44q1.35-5.33,2.68-10a69.16,69.16,0,0,1,2.81-8.07,10.21,10.21,0,0,1,3.66-4.81c.64-.43.87-.89.68-1.37a3,3,0,0,0-1.41-1.36,10,10,0,0,0-2.85-1,17.43,17.43,0,0,0-3.57-.36,11.69,11.69,0,0,0-3.61.57,6.8,6.8,0,0,0-3,1.84,23.87,23.87,0,0,0-3.89,5.9,74,74,0,0,0-3.21,7.83c-1,2.83-2,5.79-2.89,8.87s-1.88,6.1-2.81,9.07-1.93,5.79-3,8.47a38.8,38.8,0,0,1-3.5,7,24,24,0,0,0-5.49-1.08,16.18,16.18,0,0,0-5.42.52,16,16,0,0,0-5.58,2.53,9.14,9.14,0,0,0-3.09,3.73,5.3,5.3,0,0,0-.44,2.89,4.27,4.27,0,0,0,1.08,2.33,5.51,5.51,0,0,0,2.85,1.48,10.53,10.53,0,0,0,3.81,0,37,37,0,0,0,18.63-5.62,70.83,70.83,0,0,1,8.63,5.18q4.46,3.09,9.15,6.46t9.55,6.58a81.36,81.36,0,0,0,9.71,5.54,47.7,47.7,0,0,0,9.63,3.45,21.51,21.51,0,0,0,9.44.16,7.07,7.07,0,0,0,4.61-2.76,10.55,10.55,0,0,0,1.85-4.42,10,10,0,0,0-.08-4C663.35,376.18,662.94,375.68,662.4,375.84Z" transform="translate(-190.38 -78.03)"/><path class="ae69cd4a-4bee-431e-a35f-45cb8496580b" d="M719,322.9a7.25,7.25,0,0,0,2.77.61c.86,0,1.28-.22,1.28-.65a3.91,3.91,0,0,1,.45-1.52c.29-.64.61-1.29,1-1.93s.67-1.25,1-1.84a3.33,3.33,0,0,0,.44-1.37,4.63,4.63,0,0,0-1.2-3.29A8.16,8.16,0,0,0,722,311a7,7,0,0,0-2.69-.64c-.8,0-1.2.19-1.2.56a3.23,3.23,0,0,1-.48,1.37c-.32.59-.69,1.23-1.09,1.92s-.76,1.36-1.08,2a3.5,3.5,0,0,0-.48,1.49,4.64,4.64,0,0,0,1.28,3.33A8.16,8.16,0,0,0,719,322.9Z" transform="translate(-190.38 -78.03)"/><path class="ae69cd4a-4bee-431e-a35f-45cb8496580b" d="M844.68,356.52c-7,.75-12.46-3.17-15-9.76-.77-2-1.63-4-2.46-6-4.26-10.12-13.7-14.09-24.87-10.16A83.09,83.09,0,0,0,786,339c-3.81,2.4-7.34,5.23-10.93,8a25.11,25.11,0,0,0-.88-3.66,34.67,34.67,0,0,0-2.85-6.26,44.75,44.75,0,0,0-5-6.9l.24-.48a18,18,0,0,0,1.69-3.25,7.36,7.36,0,0,0,.56-3,3.28,3.28,0,0,0-1-2.25,4.1,4.1,0,0,0-2.92-.88,5.8,5.8,0,0,0-3.14.76,5.91,5.91,0,0,0-1.88,1.84,7.91,7.91,0,0,0-1.25,4,10.68,10.68,0,0,0,1.85,6l-1,2.12c-.32.67-.67,1.33-1.05,2s-.75,1.33-1.12,2.05-.78,1.54-1.2,2.45a1.37,1.37,0,0,0-.18.47,34.44,34.44,0,0,1-2.11,4.3,56,56,0,0,1-7.07,9.68,36.14,36.14,0,0,1-4.17,3.93,18.09,18.09,0,0,1-4.17,2.53,6.84,6.84,0,0,1-3.82.52,2.53,2.53,0,0,1-1.8-1.37,7.25,7.25,0,0,1-.76-2.81,17.54,17.54,0,0,1,.08-3.73,28.09,28.09,0,0,1,.8-4.13,26,26,0,0,0,7.54-3.33,28.09,28.09,0,0,0,5.74-4.9,22.5,22.5,0,0,0,3.66-5.5A12.55,12.55,0,0,0,751.1,332a5.18,5.18,0,0,0-1.41-3.77,5.85,5.85,0,0,0-4.37-1.44,16.36,16.36,0,0,0-5.7,1,19.53,19.53,0,0,0-5.46,3.21,27.27,27.27,0,0,0-5,5.58,40,40,0,0,0-4.16,8c-.1.19-.19.38-.3.58q-1.12,2.08-2.57,4.41t-3,4.66c-1.07,1.55-2.11,3-3.13,4.21a34.45,34.45,0,0,1-2.77,3.09,3.94,3.94,0,0,1-2,1.29c-1.23.11-1.77-.39-1.64-1.49a15.33,15.33,0,0,1,1.52-4.41c.89-1.85,2-3.95,3.3-6.3s2.54-4.74,3.69-7.15a45,45,0,0,0,2.69-6.94,9.93,9.93,0,0,0,.24-5.66,4.82,4.82,0,0,0-2.45-3.21,7,7,0,0,0-3.33-.72,5.71,5.71,0,0,0-2.69.72c-.72.43-.9.8-.52,1.12s.44,1.08.2,2.09a25.27,25.27,0,0,1-1.29,3.77q-.92,2.25-2.16,5c-.77,1.71-1.53,3.49-2.28,5.32l-.09.18q-1.12,2.08-2.57,4.41t-3,4.66c-1.07,1.55-2.11,3-3.13,4.21a34.45,34.45,0,0,1-2.77,3.09,3.94,3.94,0,0,1-2,1.29c-.91.11-1.29-.51-1.16-1.85a21.93,21.93,0,0,1,1.53-5.42q1.32-3.4,3.45-7.94t4.49-9.43q2.37-4.9,4.7-9.92t4-9.35a66.08,66.08,0,0,0,2.61-7.75,9.94,9.94,0,0,0,.32-5.17,4.77,4.77,0,0,0-2.45-3.21,7,7,0,0,0-3.33-.73,5.87,5.87,0,0,0-2.69.73c-.72.43-.89.8-.52,1.12s.23,1.06-.12,2.37-.91,3-1.69,5.06-1.71,4.4-2.81,7-2.24,5.35-3.45,8.19-2.42,5.71-3.65,8.63-2.35,5.68-3.37,8.3q-1.53,3.06-3.33,6.75a71.07,71.07,0,0,1-3.73,6.74,27.12,27.12,0,0,1-3.78,4.85c-1.23,1.21-2.4,1.57-3.53,1.09a3.45,3.45,0,0,1-2-2.41,13.19,13.19,0,0,1-.49-4.29,24.16,24.16,0,0,1,.77-5.14,30.83,30.83,0,0,1,1.72-5q1.69-3.69,3.37-6.7a44.44,44.44,0,0,1,3.25-5.06,18.17,18.17,0,0,1,2.93-3.13,3.74,3.74,0,0,1,2.49-1,1.35,1.35,0,0,1,1.29,1,3.43,3.43,0,0,0-.93,1,2.16,2.16,0,0,0-.36,1.2,2.09,2.09,0,0,0,.76,1.68,2.62,2.62,0,0,0,1.73.65,2.14,2.14,0,0,0,1.77-.81,3.18,3.18,0,0,0,.72-2.32,5.28,5.28,0,0,0-.64-2.69,5.37,5.37,0,0,0-1.57-1.73,6.12,6.12,0,0,0-2-.92,11.55,11.55,0,0,0-2-.36,16,16,0,0,0-5.7.88,17.31,17.31,0,0,0-5.46,3.17,27.11,27.11,0,0,0-5,5.7,43.12,43.12,0,0,0-4.15,8.05c-.1.19-.19.38-.3.58q-1.12,2.08-2.53,4.41c-.94,1.56-2,3.11-3,4.66s-2.15,3-3.17,4.21a30.27,30.27,0,0,1-2.81,3.09,4.19,4.19,0,0,1-2,1.29c-1.23.11-1.78-.39-1.64-1.49a15.33,15.33,0,0,1,1.52-4.41c.89-1.85,2-3.95,3.29-6.3s2.54-4.74,3.7-7.15a46.05,46.05,0,0,0,2.69-6.94,9.93,9.93,0,0,0,.24-5.66,4.85,4.85,0,0,0-2.45-3.21,7,7,0,0,0-3.33-.72,5.71,5.71,0,0,0-2.69.72c-.72.43-.9.8-.52,1.12a2.05,2.05,0,0,1,.24,1.81,18,18,0,0,1-1,3.21q-.72,1.89-1.8,4.26c-.73,1.57-1.46,3.25-2.21,5-.7,1.34-1.43,2.8-2.21,4.38s-1.58,3.15-2.41,4.73-1.68,3.09-2.56,4.54a35.22,35.22,0,0,1-2.57,3.69,9.38,9.38,0,0,1-2.49,2.25,2.54,2.54,0,0,1-2.37.24,3.49,3.49,0,0,1-2-2.41,13.49,13.49,0,0,1-.48-4.29,24.16,24.16,0,0,1,.77-5.14,29.91,29.91,0,0,1,1.72-5c1.12-2.46,2.25-4.69,3.37-6.7a44.44,44.44,0,0,1,3.25-5.06,18.17,18.17,0,0,1,2.93-3.13,3.74,3.74,0,0,1,2.49-1,1.35,1.35,0,0,1,1.29,1,3.43,3.43,0,0,0-.93,1,2.16,2.16,0,0,0-.36,1.2,2.06,2.06,0,0,0,.76,1.68,2.62,2.62,0,0,0,1.73.65,2.15,2.15,0,0,0,1.69-.73,3,3,0,0,0,.8-2.4,5.28,5.28,0,0,0-.64-2.69,5.37,5.37,0,0,0-1.57-1.73,6.12,6.12,0,0,0-2-.92,11.55,11.55,0,0,0-2-.36,16,16,0,0,0-5.7.88,17.31,17.31,0,0,0-5.46,3.17,27.11,27.11,0,0,0-5,5.7,42.58,42.58,0,0,0-4.29,8.39,39.14,39.14,0,0,0-1.77,5.82,20.06,20.06,0,0,0-.48,6.1,13,13,0,0,0,1.65,5.42,8.77,8.77,0,0,0,4.61,3.77,9.77,9.77,0,0,0,4.86.88,10,10,0,0,0,4.17-1.44,14.91,14.91,0,0,0,3.65-3.25,40.13,40.13,0,0,0,3.22-4.54,11.07,11.07,0,0,0,1.12,6.74,4.62,4.62,0,0,0,4.57,2.49,7.11,7.11,0,0,0,4-1.44,24.74,24.74,0,0,0,4.13-3.7,50.31,50.31,0,0,0,4-5c.69-1,1.36-2,2-3a18.78,18.78,0,0,0,0,3,13,13,0,0,0,1.65,5.42,8.77,8.77,0,0,0,4.61,3.77,9.46,9.46,0,0,0,4.82.88,9.71,9.71,0,0,0,4.17-1.44,15.85,15.85,0,0,0,3.61-3.17,34.33,34.33,0,0,0,3.22-4.46,11.29,11.29,0,0,0,1.16,6.62,4.56,4.56,0,0,0,4.53,2.45,7.11,7.11,0,0,0,4-1.44,24.74,24.74,0,0,0,4.13-3.7,50.31,50.31,0,0,0,4-5l.85-1.25c-.08.48-.16.95-.21,1.41a17.12,17.12,0,0,0,0,4,9.05,9.05,0,0,0,1,3.21,5.29,5.29,0,0,0,1.89,2.05,4.64,4.64,0,0,0,2.77.64,7.11,7.11,0,0,0,4-1.44,24.74,24.74,0,0,0,4.13-3.7,50.31,50.31,0,0,0,4-5c.7-1,1.36-2,2-3a18.16,18.16,0,0,0,0,3,12.77,12.77,0,0,0,1.65,5.42,8.89,8.89,0,0,0,4.61,3.73,10.6,10.6,0,0,0,5.86.72,17.3,17.3,0,0,0,5.82-2.09,27.28,27.28,0,0,0,5.5-4.13,51.47,51.47,0,0,0,5-5.54,55.23,55.23,0,0,0,4.25-6.18q1.89-3.16,3.25-6.06a.29.29,0,0,0,0-.1l0-.06c.54-1.07,1.14-2.21,1.81-3.41s1.27-2.32,1.81-3.33a43.47,43.47,0,0,1,3.37,9.39,27.44,27.44,0,0,1,.68,7.3,15.85,15.85,0,0,1-1.16,5.34,13.74,13.74,0,0,1-2.21,3.61,8.41,8.41,0,0,1-2.45,2,4.63,4.63,0,0,1-1.85.6,3.81,3.81,0,0,1-2.76-1.16,4.84,4.84,0,0,1-1.25-2.61,8.18,8.18,0,0,1,.16-3.21,6.7,6.7,0,0,1,1.45-2.89,2.2,2.2,0,0,0,.88,1.16,2.32,2.32,0,0,0,1.36.44,2.45,2.45,0,0,0,1.73-.72,2.32,2.32,0,0,0,.76-1.76,2,2,0,0,0-.76-1.61,2.91,2.91,0,0,0-1.65-.72,3.82,3.82,0,0,0-2.16.4,9.43,9.43,0,0,0-2.89,2.25,6.66,6.66,0,0,0-1.53,3.45,10.63,10.63,0,0,0,.16,4.49,8,8,0,0,0,2.29,3.9,6.91,6.91,0,0,0,4.94,1.64,9.87,9.87,0,0,0,2.73-.48,21,21,0,0,0,3.37-1.36l.08-.08h.08A23,23,0,0,0,771,362a42.52,42.52,0,0,0,3.31-3c2.2-2.07,4.31-4.24,6.45-6.36,4.25-4.22,8.24-8.73,12.76-12.64a24.29,24.29,0,0,1,15.15-6c7.42-.29,12.19,3.41,15.26,9.78,1,2.08,1.72,4.29,2.8,6.32,6.25,11.75,20.77,13,28.89,3.18C852.34,354.27,848.59,356.1,844.68,356.52ZM734.56,346.06a57.31,57.31,0,0,1,6.59-11.72q3.29-4.24,5.45-4.17c1,.05,1.44.77,1.41,2.17a11.32,11.32,0,0,1-1.57,4.93,23.11,23.11,0,0,1-4.61,5.78,21.77,21.77,0,0,1-7.91,4.62A16.2,16.2,0,0,1,734.56,346.06Z" transform="translate(-190.38 -78.03)"/><path class="ae69cd4a-4bee-431e-a35f-45cb8496580b" d="M608.06,241.79a1.53,1.53,0,0,0-1.25-.2l-.32.08-15.33,3.61c.27-1.12.52-2.26.76-3.41s.44-2.34.6-3.57Q594.45,225,592.4,216T585.26,202a24.15,24.15,0,0,0-12.84-6.58,49.29,49.29,0,0,0-17.14,0,45,45,0,0,0-14.17,4.74,51,51,0,0,0-11.24,8.14,48.32,48.32,0,0,0-8.06,10.12,42,42,0,0,0-4.58,10.47,23.66,23.66,0,0,0-.8,9.31,10.65,10.65,0,0,0,3.29,6.75,6.31,6.31,0,0,0,3.81,1.76,7.3,7.3,0,0,0,3.53-.48,3.76,3.76,0,0,0,2-1.72c.35-.73.09-1.41-.76-2.05a4.63,4.63,0,0,1-1.57-3.17,19.62,19.62,0,0,1,0-5.46,41.21,41.21,0,0,1,1.57-6.94,56.77,56.77,0,0,1,3-7.67,55.77,55.77,0,0,1,4.33-7.54,37.83,37.83,0,0,1,5.62-6.55,25.31,25.31,0,0,1,8.51-5.33,23.25,23.25,0,0,1,9.35-1.49,19.72,19.72,0,0,1,8.91,2.65,20.69,20.69,0,0,1,7.19,7.14,30.59,30.59,0,0,1,4.17,13.21,67.67,67.67,0,0,1-.64,17.14c-.27,1.87-.59,3.68-1,5.41s-.83,3.47-1.36,5.18q-5.22,1.37-10.32,2.85T556.24,255a143.92,143.92,0,0,0-21.35,8.83q-9.72,5.39-13,11a11.12,11.12,0,0,0-.57,11.16q1.36,3,5.78,4.65a18.79,18.79,0,0,0,4.58,1c1.71.17,3.45.25,5.22.25a47.4,47.4,0,0,0,10.87-1.69A62.21,62.21,0,0,0,559,285.9a60.62,60.62,0,0,0,11.8-7.47,63,63,0,0,0,9.79-9.87,53.63,53.63,0,0,0,5.58-9.11,69.14,69.14,0,0,0,4.14-10.8l16.29-3.85.4-.08a2.16,2.16,0,0,0,1.13-.73,1.51,1.51,0,0,0,.4-1.2A1,1,0,0,0,608.06,241.79Zm-42.31,27.53a59.78,59.78,0,0,1-15,12.24c-1.07.64-2.35,1.35-3.85,2.13s-3.1,1.51-4.82,2.21a45.56,45.56,0,0,1-5.25,1.76,19.82,19.82,0,0,1-5.1.72,9.84,9.84,0,0,1-4.38-1,6.77,6.77,0,0,1-3.09-3.29,8.15,8.15,0,0,1,.32-8.11q5.22-9.07,32.11-18c2.95-1,6-1.91,9.11-2.85s6.33-1.83,9.6-2.69A51.41,51.41,0,0,1,565.75,269.32Z" transform="translate(-190.38 -78.03)"/><path class="ae69cd4a-4bee-431e-a35f-45cb8496580b" d="M545.93,219.87q-1.81,3.9-4,8.47t-4,8.91a69.6,69.6,0,0,0-2.81,7.95c-.67,2.41-.79,4.25-.36,5.54a5.58,5.58,0,0,0,2.13,3.29,5.2,5.2,0,0,0,2.81.88,4.21,4.21,0,0,0,2.4-.68c.67-.46,1-.92,1-1.41a13.16,13.16,0,0,1,1-5.53,64.25,64.25,0,0,1,3-6.67c1.23-2.35,2.56-4.79,4-7.3s2.73-5,3.94-7.51a52.91,52.91,0,0,0,2.89-7.26,16.63,16.63,0,0,0,.76-6.58,4,4,0,0,0-1-2.49,4.65,4.65,0,0,0-2.09-1.21,8.13,8.13,0,0,0-2.53-.24,13.14,13.14,0,0,0-2.37.36,4.42,4.42,0,0,0-1.6.73c-.38.29-.43.55-.16.76.42.43.33,1.55-.28,3.37A69.82,69.82,0,0,1,545.93,219.87Z" transform="translate(-190.38 -78.03)"/><path class="ae69cd4a-4bee-431e-a35f-45cb8496580b" d="M793.6,228.9a1.84,1.84,0,0,0-1,0,1.21,1.21,0,0,0-.81.81,27.15,27.15,0,0,1-1.6,3.49q-1.12,2.13-2.57,4.45c-1,1.56-2,3.12-3.09,4.7s-2.16,3-3.17,4.25a27.53,27.53,0,0,1-2.81,3.05,3.63,3.63,0,0,1-2,1.17c-1.07,0-1.64-.39-1.72-1.17a7.26,7.26,0,0,1,.6-3.09,46.46,46.46,0,0,1,2-4.53q1.33-2.61,2.65-5.5a62.6,62.6,0,0,0,2.37-5.9,21.38,21.38,0,0,0,1.21-5.74,11.83,11.83,0,0,0-1-7.22,4.79,4.79,0,0,0-4.65-2.73,6.89,6.89,0,0,0-3,.72,17.71,17.71,0,0,0-3.13,1.93,27,27,0,0,0-3.18,2.81q-1.56,1.6-3.08,3.37a17.08,17.08,0,0,0,.4-2.61,6.54,6.54,0,0,0-.24-2.29,4.84,4.84,0,0,0-2.41-3.21,6.79,6.79,0,0,0-3.33-.72,5.78,5.78,0,0,0-2.73.72c-.73.43-.9.8-.53,1.12s.43,1.4,0,2.89a43,43,0,0,1-2,5.38c-.91,2.07-1.91,4.34-3,6.81a6.88,6.88,0,0,1-1,1.14,10.78,10.78,0,0,1-3,1.76,14.52,14.52,0,0,1-5.13.89,16.18,16.18,0,0,0,.88-4.9,4.08,4.08,0,0,0-.72-2.45,2.2,2.2,0,0,0-1.53-.84c-.59-.05-1.07-.08-1.44-.08a3.28,3.28,0,0,0-2.65,1.28,6,6,0,0,0-1.29,3,6.47,6.47,0,0,0,.41,3.33,4.1,4.1,0,0,0,2.32,2.37c-.69,1.39-1.51,2.91-2.44,4.54s-1.9,3.14-2.89,4.53a20.33,20.33,0,0,1-3,3.41,3.22,3.22,0,0,1-2.69,1.09,3.18,3.18,0,0,1-2.41-1.89,9.1,9.1,0,0,1-.68-4,23.8,23.8,0,0,1,.76-5.34,44.07,44.07,0,0,1,1.93-5.94A51.34,51.34,0,0,1,730,227.9a37.24,37.24,0,0,1,3.25-5c.64-.8,1.29-1.59,2-2.36a11.05,11.05,0,0,1,2-1.85A3.19,3.19,0,0,1,739,218c.56,0,1,.37,1.48,1.12a3.49,3.49,0,0,0-.92,1,2.22,2.22,0,0,0-.36,1.21,2.08,2.08,0,0,0,.76,1.68,2.6,2.6,0,0,0,1.72.65,2.14,2.14,0,0,0,2-1.21,2.82,2.82,0,0,0,.48-1.84,16.4,16.4,0,0,0-.48-1.89,5.93,5.93,0,0,0-1-1.85,5.79,5.79,0,0,0-1.65-1.44,5.39,5.39,0,0,0-2.53-.68,15.57,15.57,0,0,0-6.46,1,19.5,19.5,0,0,0-5.7,3.45,27.67,27.67,0,0,0-4.69,5.26,36.08,36.08,0,0,0-3.53,6.38c-.2.45-.37.9-.54,1.35-.51,1-1.12,2.17-1.87,3.47q-2.09,3.6-4.82,7.42a85.61,85.61,0,0,1-5.86,7.31,32.7,32.7,0,0,1-6,5.41,34.37,34.37,0,0,1,1.61-3.77c.85-1.82,1.84-3.94,3-6.38s2.3-5,3.53-7.79,2.33-5.39,3.29-7.9a71.33,71.33,0,0,0,2.25-6.79,9,9,0,0,0,.4-4.37,5.21,5.21,0,0,0-2.37-3.37,6.25,6.25,0,0,0-3.33-.8,6.16,6.16,0,0,0-2.81.72c-.75.43-1,.8-.72,1.12.43.59.25,2.09-.52,4.5s-1.89,5.32-3.34,8.75a.48.48,0,0,0-.08.32q-1.6,3-3.49,6.86c-1.26,2.6-2.55,5-3.89,7.27a29.21,29.21,0,0,1-4,5.41q-2,2.06-3.78,1.33a3.45,3.45,0,0,1-2-2.41,13.19,13.19,0,0,1-.49-4.29,24.16,24.16,0,0,1,.77-5.14,30.83,30.83,0,0,1,1.72-5q1.69-3.69,3.37-6.7a43.06,43.06,0,0,1,3.26-5.06,17.42,17.42,0,0,1,2.93-3.13,3.65,3.65,0,0,1,2.48-1,1.35,1.35,0,0,1,1.29,1,3.49,3.49,0,0,0-.92,1,2.15,2.15,0,0,0-.37,1.21,2.08,2.08,0,0,0,.77,1.68,2.58,2.58,0,0,0,1.72.65,2.14,2.14,0,0,0,1.77-.81,3.18,3.18,0,0,0,.72-2.32,5.18,5.18,0,0,0-.64-2.69,5.37,5.37,0,0,0-1.57-1.73,6.17,6.17,0,0,0-2-.92,11.81,11.81,0,0,0-2-.36,16,16,0,0,0-5.7.88,17.42,17.42,0,0,0-5.46,3.17,27.39,27.39,0,0,0-5,5.7,42.91,42.91,0,0,0-4.15,8.06l-.3.57q-1.12,2.09-2.53,4.41c-.94,1.56-2,3.11-3.05,4.66s-2.15,3-3.17,4.21a30.27,30.27,0,0,1-2.81,3.09,4.27,4.27,0,0,1-2,1.29c-1.23.11-1.77-.39-1.64-1.49a15.33,15.33,0,0,1,1.52-4.41c.89-1.85,2-3.95,3.29-6.3s2.55-4.74,3.7-7.15a46.47,46.47,0,0,0,2.69-6.94,9.93,9.93,0,0,0,.24-5.66,4.8,4.8,0,0,0-2.45-3.21,6.89,6.89,0,0,0-3.33-.72,5.71,5.71,0,0,0-2.69.72c-.72.43-.9.8-.52,1.12a2.05,2.05,0,0,1,.24,1.81,18,18,0,0,1-1,3.21q-.72,1.89-1.8,4.25c-.72,1.58-1.46,3.26-2.21,5q-1,2-2.21,4.38c-.77,1.57-1.58,3.15-2.4,4.73s-1.69,3.09-2.57,4.54a35.22,35.22,0,0,1-2.57,3.69,9.38,9.38,0,0,1-2.49,2.25,2.54,2.54,0,0,1-2.37.24,3.45,3.45,0,0,1-2-2.41,13.19,13.19,0,0,1-.49-4.29,24.16,24.16,0,0,1,.77-5.14,30.83,30.83,0,0,1,1.72-5q1.69-3.69,3.37-6.7a44.44,44.44,0,0,1,3.25-5.06,18.17,18.17,0,0,1,2.93-3.13,3.69,3.69,0,0,1,2.49-1,1.35,1.35,0,0,1,1.29,1,3.53,3.53,0,0,0-.93,1,2.22,2.22,0,0,0-.36,1.21,2.08,2.08,0,0,0,.77,1.68,2.58,2.58,0,0,0,1.72.65,2.13,2.13,0,0,0,1.69-.73,3,3,0,0,0,.8-2.4,5.28,5.28,0,0,0-.64-2.69,5.37,5.37,0,0,0-1.57-1.73,6.17,6.17,0,0,0-2-.92,11.81,11.81,0,0,0-2.05-.36,16,16,0,0,0-5.7.88,17.42,17.42,0,0,0-5.46,3.17,27.11,27.11,0,0,0-5,5.7,42.58,42.58,0,0,0-4.29,8.39c0,.09-.07.19-.11.29-.74,1.37-1.59,2.83-2.54,4.36s-2,3.11-3,4.66-2.11,3-3.13,4.21a30.27,30.27,0,0,1-2.81,3.09,4.27,4.27,0,0,1-2,1.29c-1.23.11-1.78-.39-1.64-1.49a15.33,15.33,0,0,1,1.52-4.41c.89-1.85,2-3.95,3.29-6.3s2.54-4.74,3.7-7.15a46.47,46.47,0,0,0,2.69-6.94,9.93,9.93,0,0,0,.24-5.66,4.89,4.89,0,0,0-2.33-3.13,7.18,7.18,0,0,0-3.21-.8,4,4,0,0,0-1.93.4q-.72.41-1.44.84a10.35,10.35,0,0,1-1.73.84,7.6,7.6,0,0,1-2.77.41,11.31,11.31,0,0,1-1.48-.09,2,2,0,0,1-1.09-.4,15.71,15.71,0,0,0,.44-3.05c.08-1.23.12-2.19.12-2.89a5,5,0,0,0-1.24-3.17,3.58,3.58,0,0,0-2.77-1.32,4.46,4.46,0,0,0-3.85,1.76,7,7,0,0,0-1.29,4.26,6.79,6.79,0,0,0,1.33,3.85,8,8,0,0,0,3.17,2.81,18.16,18.16,0,0,1-.88,2.61q-.64,1.56-1.29,3.21c-.43,1.1-.85,2.14-1.28,3.13s-.73,1.73-.89,2.21a1.19,1.19,0,0,0,0,1.08,1.37,1.37,0,0,0,.73.6,1.43,1.43,0,0,0,1,0,1.19,1.19,0,0,0,.76-.64c.32-.59.73-1.43,1.21-2.53s1-2.22,1.44-3.37.93-2.22,1.33-3.21.68-1.67.84-2.05a13.09,13.09,0,0,0,4.21.45,12.7,12.7,0,0,0,3.82-.77,42.23,42.23,0,0,1-2,5.06q-1.36,3-2.81,6.38c-1,2.28-1.85,4.59-2.65,7a30.11,30.11,0,0,0-1.52,6.66,17.13,17.13,0,0,0,0,4,9.05,9.05,0,0,0,1,3.21,5.36,5.36,0,0,0,1.89,2.05,4.61,4.61,0,0,0,2.76.64,7.11,7.11,0,0,0,4-1.44,24.74,24.74,0,0,0,4.13-3.7,50.31,50.31,0,0,0,4-5q1-1.43,1.92-2.82a18.2,18.2,0,0,0,0,2.86,13,13,0,0,0,1.65,5.42,8.77,8.77,0,0,0,4.61,3.77,9.77,9.77,0,0,0,4.86.88,10,10,0,0,0,4.17-1.44,15.13,15.13,0,0,0,3.66-3.25,41.4,41.4,0,0,0,3.21-4.54,11.07,11.07,0,0,0,1.12,6.74,4.64,4.64,0,0,0,4.58,2.49,7.11,7.11,0,0,0,4-1.44,24.74,24.74,0,0,0,4.13-3.7,50.31,50.31,0,0,0,4-5c.7-1,1.36-2,2-3a18.78,18.78,0,0,0,0,3,13,13,0,0,0,1.65,5.42,8.81,8.81,0,0,0,4.61,3.77,9.74,9.74,0,0,0,6.23.6,11.83,11.83,0,0,0,5.09-3q-1.27,3-2.37,5.7t-1.88,5a17.24,17.24,0,0,1-3.25,2.2c-1.26.67-2.55,1.33-3.86,2s-2.56,1.31-3.77,2a15,15,0,0,0-3.09,2.32,5,5,0,0,0-1.4,2.13,4.7,4.7,0,0,0-.21,1.73,6.41,6.41,0,0,0,1.89,3.57,8.71,8.71,0,0,0,3.49,2,12.79,12.79,0,0,0,4.34.48,14.1,14.1,0,0,0,4.49-1,12.46,12.46,0,0,0,3.9-2.4,9.26,9.26,0,0,0,2.52-3.82c.22-.53.55-1.36,1-2.48s1-2.33,1.52-3.62,1.11-2.55,1.65-3.81,1-2.29,1.28-3.09a32.54,32.54,0,0,0,7.07-5.1,64.06,64.06,0,0,0,6.9-7.5c1.73-2.19,3.34-4.46,4.86-6.8a25.8,25.8,0,0,0-.12,3.27,12.26,12.26,0,0,0,2.44,7.22,8.7,8.7,0,0,0,6.3,3.37,9.21,9.21,0,0,0,5.74-1.44,21.87,21.87,0,0,0,4.94-4.3,34.81,34.81,0,0,0,4-5.66q1.72-3,2.85-5.54a17.61,17.61,0,0,0,4.46-.4,17.41,17.41,0,0,0,3.83-1.29c-.39,1-.78,1.92-1.14,2.86a50.62,50.62,0,0,0-2.09,6.7,9.55,9.55,0,0,0-.08,5.06,5.58,5.58,0,0,0,2.13,3.29,4.78,4.78,0,0,0,2.73.84,3.54,3.54,0,0,0,2.16-.72c.57-.45.74-.9.53-1.33a4.44,4.44,0,0,1,0-3.21A33.68,33.68,0,0,1,756,245c.86-1.82,1.83-3.76,2.93-5.82s2.16-4.14,3.17-6.22q1.53-2.25,3.45-4.7t3.82-4.49a34.35,34.35,0,0,1,3.49-3.37,5.36,5.36,0,0,1,2.49-1.41c1.12-.05,1.75.24,1.88.88a5.44,5.44,0,0,1-.44,2.77,34.37,34.37,0,0,1-1.92,4.26q-1.29,2.44-2.61,5.38c-.89,2-1.7,4-2.45,6.14a31,31,0,0,0-1.53,6.5,13.11,13.11,0,0,0,0,3.65,11.14,11.14,0,0,0,1,3.25,6.32,6.32,0,0,0,1.84,2.29,4,4,0,0,0,2.73.76,7.14,7.14,0,0,0,4-1.44,24.74,24.74,0,0,0,4.13-3.7,50.26,50.26,0,0,0,4-5q1.94-2.73,3.57-5.42t2.85-5.06c.81-1.58,1.42-2.82,1.85-3.73a1,1,0,0,0,0-1A1.37,1.37,0,0,0,793.6,228.9Zm-110,40.54c-.46,1-.84,1.9-1.16,2.65a12.16,12.16,0,0,1-2.25,3.81,5.54,5.54,0,0,1-2.33,1.57,3,3,0,0,1-2.05-.08,3.91,3.91,0,0,1-1.52-1.17,3.42,3.42,0,0,1-.72-1.72,2.43,2.43,0,0,1,.44-1.77,8.26,8.26,0,0,1,2.29-2.09,27.42,27.42,0,0,1,2.92-1.6l3-1.45a13.65,13.65,0,0,0,2.73-1.68C684.51,267.25,684,268.42,683.59,269.44Z" transform="translate(-190.38 -78.03)"/><path class="ae69cd4a-4bee-431e-a35f-45cb8496580b" d="M693,117.45a1.41,1.41,0,0,0-1.21-.21,1.37,1.37,0,0,0-.72.77,67.78,67.78,0,0,1-3.49,5.9,65.82,65.82,0,0,1-4.78,6.38,43.83,43.83,0,0,1-5.9,5.9,16.76,16.76,0,0,1-7.1,3.41,27.26,27.26,0,0,0,5.38-5.78,42.46,42.46,0,0,0,4.65-8.83,39.51,39.51,0,0,0,1.77-5.82,20.06,20.06,0,0,0,.48-6.1,12.91,12.91,0,0,0-1.64-5.38,9.28,9.28,0,0,0-4.62-3.81,9.83,9.83,0,0,0-8.11,0,19.76,19.76,0,0,0-6.66,5.42,7.56,7.56,0,0,0-.08-2.57,4.78,4.78,0,0,0-2.41-3.21,6.75,6.75,0,0,0-3.33-.72,5.78,5.78,0,0,0-2.73.72c-.72.43-.89.8-.52,1.12s.24,1.31-.24,3a66.06,66.06,0,0,1-2.25,6.26q-1.53,3.78-3.57,8.55l-.06.14c-.56,1-1.16,2-1.83,3.11-1,1.56-2,3.12-3.09,4.7s-2.15,3-3.17,4.25a25.72,25.72,0,0,1-2.81,3,3.58,3.58,0,0,1-2,1.17c-1.07,0-1.65-.39-1.73-1.17a7.26,7.26,0,0,1,.6-3.09,46.82,46.82,0,0,1,2-4.53c.88-1.74,1.77-3.57,2.65-5.5s1.67-3.89,2.37-5.9a21.74,21.74,0,0,0,1.2-5.74,11.74,11.74,0,0,0-1-7.18,5,5,0,0,0-4.66-2.77,6.9,6.9,0,0,0-3.61,1.12,20.6,20.6,0,0,0-3.77,3,36.66,36.66,0,0,0-3.78,4.46q-1.85,2.52-3.61,5.25a13.06,13.06,0,0,0,.48-2c.11-.67.22-1.33.33-2a11.88,11.88,0,0,0-1-7.23,4.8,4.8,0,0,0-4.65-2.72,9.28,9.28,0,0,0-5.38,2.28,34.73,34.73,0,0,0-5.38,5.34,7.28,7.28,0,0,0-.08-3.61,4.78,4.78,0,0,0-2.41-3.21,6.75,6.75,0,0,0-3.33-.72,5.78,5.78,0,0,0-2.73.72c-.72.43-.9.8-.52,1.12s.43,1.39,0,2.89a44.86,44.86,0,0,1-2,5.38c-.56,1.29-1.17,2.67-1.81,4.11a1.34,1.34,0,0,0-.35.55,26.84,26.84,0,0,1-1.61,3.45q-1.12,2.08-2.53,4.41c-.93,1.55-2,3.11-3,4.66s-2.15,3-3.17,4.21a30.27,30.27,0,0,1-2.81,3.09,4.23,4.23,0,0,1-2,1.29c-1.23.1-1.78-.39-1.64-1.49a15.33,15.33,0,0,1,1.52-4.41c.89-1.85,2-4,3.3-6.3s2.54-4.74,3.69-7.15a46.47,46.47,0,0,0,2.69-6.94,9.93,9.93,0,0,0,.24-5.66,4.77,4.77,0,0,0-2.45-3.21,6.89,6.89,0,0,0-3.33-.72,5.71,5.71,0,0,0-2.69.72c-.72.43-.9.8-.52,1.12a2.05,2.05,0,0,1,.24,1.81,18.77,18.77,0,0,1-1,3.21q-.73,1.89-1.81,4.25t-2.21,5q-1,2-2.21,4.38c-.77,1.57-1.58,3.15-2.4,4.73s-1.69,3.09-2.57,4.54a35.22,35.22,0,0,1-2.57,3.69,9.56,9.56,0,0,1-2.49,2.25,2.54,2.54,0,0,1-2.37.24,3.45,3.45,0,0,1-2-2.41,13.22,13.22,0,0,1-.49-4.3,24.17,24.17,0,0,1,.77-5.13,30.83,30.83,0,0,1,1.72-5c1.13-2.46,2.25-4.7,3.37-6.7a44.44,44.44,0,0,1,3.25-5.06,18.17,18.17,0,0,1,2.93-3.13,3.69,3.69,0,0,1,2.49-1,1.35,1.35,0,0,1,1.29,1,3.53,3.53,0,0,0-.93,1,2.22,2.22,0,0,0-.36,1.21,2.08,2.08,0,0,0,.77,1.68,2.58,2.58,0,0,0,1.72.65,2.16,2.16,0,0,0,1.69-.73,3,3,0,0,0,.8-2.41,5.14,5.14,0,0,0-.64-2.68A5.37,5.37,0,0,0,572,104a6.17,6.17,0,0,0-2-.92,11.81,11.81,0,0,0-2-.36,16,16,0,0,0-5.7.88,17.42,17.42,0,0,0-5.46,3.17,27.39,27.39,0,0,0-5,5.7,43.11,43.11,0,0,0-4.22,8.22l-.23.45q-1.12,2.13-2.57,4.45c-1,1.56-2,3.12-3.09,4.7s-2.15,3-3.17,4.25a26.59,26.59,0,0,1-2.81,3,3.6,3.6,0,0,1-2,1.17c-1.07,0-1.64-.39-1.72-1.17a7.26,7.26,0,0,1,.6-3.09,44.5,44.5,0,0,1,2.05-4.53q1.32-2.61,2.65-5.5c.88-1.93,1.67-3.89,2.36-5.9a21.38,21.38,0,0,0,1.21-5.74,11.83,11.83,0,0,0-1-7.22,4.78,4.78,0,0,0-4.65-2.73,10,10,0,0,0-5.5,2.24,38.84,38.84,0,0,0-5.74,5.3q2.17-4.58,4.17-9.07c1.34-3,2.49-5.76,3.46-8.31a60.94,60.94,0,0,0,2.16-6.7A8.38,8.38,0,0,0,534,82a4.85,4.85,0,0,0-2.4-3.22,7,7,0,0,0-3.33-.72,6,6,0,0,0-2.73.72c-.73.43-.9.81-.53,1.13s.25,1.31-.24,3-1.23,3.75-2.24,6.26-2.21,5.37-3.58,8.55-2.78,6.46-4.25,9.83-2.9,6.72-4.29,10c-.38.89-.74,1.77-1.1,2.64-1.66,3.17-3.39,6.25-5.21,9.2q-3.09,5-6.34,9.39a96.19,96.19,0,0,1-6.58,8,65.91,65.91,0,0,1-6.54,6.26,26.94,26.94,0,0,1-8,4.74,13.64,13.64,0,0,1-6.78.76,9.7,9.7,0,0,1-5.3-2.73,14.06,14.06,0,0,1-3.41-5.7A25.32,25.32,0,0,1,460,142a37.87,37.87,0,0,1,1.44-9.88q.72-2.72,2-6.26t2.89-7.34c1.09-2.54,2.34-5.11,3.73-7.71a68,68,0,0,1,4.49-7.26,72.51,72.51,0,0,1,6.43-7.87,42.64,42.64,0,0,1,6-5.34A12.55,12.55,0,0,1,491.68,88a2.5,2.5,0,0,1,2.89,1.16,9.59,9.59,0,0,1,.89,4.7,22,22,0,0,1-1,5.9,26.44,26.44,0,0,1-2.69,5.86,17.16,17.16,0,0,1-4,4.57,1.56,1.56,0,0,0-.48,2.21,6.17,6.17,0,0,0,2.29,2.17,9.57,9.57,0,0,0,3.41,1.2,3.53,3.53,0,0,0,3-.68,18.05,18.05,0,0,0,5.09-7.43,24.57,24.57,0,0,0,1.57-8.51,22.23,22.23,0,0,0-1.37-7.86,13.22,13.22,0,0,0-3.61-5.58,12.08,12.08,0,0,0-6.26-3,18.38,18.38,0,0,0-6.62.24,24.07,24.07,0,0,0-6,2.17,23.45,23.45,0,0,0-4.46,2.89,79.86,79.86,0,0,0-9.15,9,75,75,0,0,0-7.18,10,76.86,76.86,0,0,0-5.58,11.32,133.33,133.33,0,0,0-4.41,13.12,42.37,42.37,0,0,0-1.41,8.51,30.37,30.37,0,0,0,.6,8.47,23.47,23.47,0,0,0,3.05,7.5,16.9,16.9,0,0,0,5.86,5.62,15.32,15.32,0,0,0,4.58,2,20.05,20.05,0,0,0,5.06.64,25.55,25.55,0,0,0,4.45-.4,20,20,0,0,0,4.37-1.28,43.13,43.13,0,0,0,12.05-7.07,79,79,0,0,0,12.68-13.4q1.68-2.18,3.45-4.78c.54-.79,1.07-1.6,1.61-2.43a8.53,8.53,0,0,0-.17,4.08,5.68,5.68,0,0,0,2.13,3.29,4.82,4.82,0,0,0,2.73.84,3.57,3.57,0,0,0,2.17-.72c.56-.45.73-.9.52-1.33q-.65-1.2.84-5.21t4.06-9.72l.16-.32v-.08l1-2.16a49,49,0,0,1,3.37-5.18q2.08-2.85,4.26-5.38a37.75,37.75,0,0,1,4.13-4.21,6.32,6.32,0,0,1,3-1.77c1.12-.05,1.75.24,1.89.88a5.58,5.58,0,0,1-.45,2.77,33.56,33.56,0,0,1-1.92,4.26q-1.29,2.44-2.61,5.37T527,126.44a30.36,30.36,0,0,0-1.52,6.5,12.74,12.74,0,0,0,0,3.65,10.84,10.84,0,0,0,1,3.25,6.34,6.34,0,0,0,1.85,2.29,4.05,4.05,0,0,0,2.72.76,7.11,7.11,0,0,0,4-1.44,24.74,24.74,0,0,0,4.13-3.7,50.31,50.31,0,0,0,4-5c.69-1,1.36-2,2-3a18.78,18.78,0,0,0,0,3,13,13,0,0,0,1.65,5.41,8.78,8.78,0,0,0,4.61,3.78,9.77,9.77,0,0,0,4.86.88,10,10,0,0,0,4.17-1.44,15,15,0,0,0,3.66-3.26,40.31,40.31,0,0,0,3.21-4.53,11.07,11.07,0,0,0,1.12,6.74,4.64,4.64,0,0,0,4.58,2.49,7.11,7.11,0,0,0,4-1.44,24.74,24.74,0,0,0,4.13-3.7,51.1,51.1,0,0,0,3.92-4.89c-.09.35-.19.7-.26,1a9.45,9.45,0,0,0-.08,5.06,5.62,5.62,0,0,0,2.12,3.29,4.82,4.82,0,0,0,2.73.84,3.57,3.57,0,0,0,2.17-.72c.56-.45.73-.9.52-1.33a4.51,4.51,0,0,1,.12-3.49,46.35,46.35,0,0,1,2.21-5.26q1.44-3,3.25-6.38t3.33-6.7c.91-1.44,1.89-2.89,2.93-4.33a48.33,48.33,0,0,1,3.09-3.9,29.34,29.34,0,0,1,2.85-2.85,4.41,4.41,0,0,1,2.13-1.2c1.23-.11,1.79.39,1.68,1.48a15.07,15.07,0,0,1-1.44,4.46c-.86,1.87-1.93,4-3.21,6.34s-2.49,4.75-3.61,7.19a44.78,44.78,0,0,0-2.61,7,10,10,0,0,0-.2,5.66,4.81,4.81,0,0,0,2.44,3.21,7.12,7.12,0,0,0,3.33.72,5.68,5.68,0,0,0,2.69-.72c.73-.43.9-.8.53-1.13-.54-.42-.54-1.47,0-3.13s1.28-3.66,2.24-6c.75-1.55,1.64-3.23,2.65-5s2.1-3.66,3.25-5.5,2.3-3.64,3.46-5.38,2.26-3.28,3.33-4.62a28.75,28.75,0,0,1,2.93-3.21,3.71,3.71,0,0,1,2.12-1.2c1.13,0,1.75.32,1.89,1a5.55,5.55,0,0,1-.44,2.77,33.16,33.16,0,0,1-1.93,4.26q-1.27,2.44-2.61,5.33t-2.45,6.11a31,31,0,0,0-1.52,6.5,12.74,12.74,0,0,0,0,3.65,11.14,11.14,0,0,0,1,3.25,6.34,6.34,0,0,0,1.85,2.29,4.1,4.1,0,0,0,2.73.76,7.11,7.11,0,0,0,4-1.44,25.18,25.18,0,0,0,4.14-3.7c.49-.54,1-1.12,1.47-1.71-.89,2.08-1.78,4.15-2.64,6.21q-2.08,5-3.65,9.27a69.88,69.88,0,0,0-2.33,7.5,9.37,9.37,0,0,0-.28,4.66,5.55,5.55,0,0,0,2.13,3.29,4.78,4.78,0,0,0,2.73.84,3.42,3.42,0,0,0,2.16-.72c.57-.45.74-.89.53-1.32-.33-.64-.2-1.88.36-3.69a69.63,69.63,0,0,1,2.52-6.67q1.69-3.93,3.94-8.67t4.61-9.75q2.37-5,4.58-9.87t3.81-9q1.37-2.32,2.85-4.5a30.39,30.39,0,0,1,3-3.73,12.34,12.34,0,0,1,3-2.37,4,4,0,0,1,2.85-.48,3,3,0,0,1,2.09,2.21,12.56,12.56,0,0,1,.44,4.29,28,28,0,0,1-.8,5.26,29.91,29.91,0,0,1-1.73,5.1c-1.12,2.51-2.25,4.76-3.37,6.74a44.93,44.93,0,0,1-3.25,5,17.46,17.46,0,0,1-3,3.13,3.79,3.79,0,0,1-2.45,1,1.48,1.48,0,0,1-1.36-1,2.22,2.22,0,0,0,1.36-2.17,2.11,2.11,0,0,0-.76-1.69,2.67,2.67,0,0,0-1.73-.64,2.45,2.45,0,0,0-1.76.8,2.87,2.87,0,0,0-.73,2.33,5.18,5.18,0,0,0,.65,2.69,5.45,5.45,0,0,0,1.56,1.73,6.32,6.32,0,0,0,2,.92,11.49,11.49,0,0,0,2,.36h1.2a29.65,29.65,0,0,0,7.54,0,22.62,22.62,0,0,0,6.14-1.72,21.64,21.64,0,0,0,5-3.13,41.52,41.52,0,0,0,4.26-4.14,74.77,74.77,0,0,0,5.58-7.14,61.11,61.11,0,0,0,4.45-7.63,1.54,1.54,0,0,0,.12-1A1.3,1.3,0,0,0,693,117.45Z" transform="translate(-190.38 -78.03)"/><path class="ae69cd4a-4bee-431e-a35f-45cb8496580b" d="M703.51,95.21a2.48,2.48,0,0,0-1.44-1.93,7,7,0,0,0-4.94-.28c-.67.24-.92.52-.76.85a8.73,8.73,0,0,1,1,5.65,17.16,17.16,0,0,1-1.6,4.66,33.65,33.65,0,0,1-2,3.37c-.62.88-.66,1.46-.12,1.73a3.72,3.72,0,0,0,3.49-.16,10.2,10.2,0,0,0,3.45-3,16.49,16.49,0,0,0,2.49-4.94A12.5,12.5,0,0,0,703.51,95.21Z" transform="translate(-190.38 -78.03)"/><path class="b503e069-78e3-4d72-a672-9fa7311f376a" d="M494.54,427.7c5.74,2.92,9,6.84,9,11.86a15.39,15.39,0,0,1-2,7.21,44.34,44.34,0,0,1-8,10.21,1,1,0,0,0-.16,1.42c2.7,4.9,5.35,9.82,8,14.73a8.71,8.71,0,0,0,.54.79c.2-.18.29-.25.36-.33,4.86-5.62,9.27-11.47,12.17-18.07,2-4.54,3.09-9.29,2.05-14.51-1.13-5.73-4.69-10.54-11.28-14.09-1.72-.92-3.62-1.59-5.44-2.37l-4.73-1.12-2.37-.24c-5.53-.49-10.75-.2-15.27,1.8a4.83,4.83,0,0,0-.62.37,5.48,5.48,0,0,0,1.32-.08C483.67,424.66,489.15,425,494.54,427.7Z" transform="translate(-190.38 -78.03)"/><path class="b503e069-78e3-4d72-a672-9fa7311f376a" d="M522.87,514.07c-3-5.18-5.94-10.36-8.94-15.53-1.45-2.51-3-5-4.48-7.49q-4.32-7.53-8.53-15.08c-5.4-9.69-10.64-19.42-14.68-29.35a45,45,0,0,1-3.49-12.18,11.87,11.87,0,0,1,.08-3.32c.41-2.29,1.83-3.88,5.16-3.95a20.69,20.69,0,0,0-2.48-.65c-6-1.08-10.67,0-13.67,3.73-2.35,2.88-3.14,6.3-3.3,9.9-.23,5.32,1,10.72,2.74,16.13a144.12,144.12,0,0,0,9.6,21.83c1.42,2.72,2.81,5.45,4.24,8.17.52,1,2.27,4.42,2.94,5.39a42.6,42.6,0,0,1,2.25,3.74q8.54,15.3,17.05,30.63c.66,1.18,1.08,3,2.36,3.25.26.07.37-.09.61-.33q4.41-4.55,8.81-9.08c1.52-1.57,4-3,4.05-4.81A1.76,1.76,0,0,0,522.87,514.07Z" transform="translate(-190.38 -78.03)"/><path class="b503e069-78e3-4d72-a672-9fa7311f376a" d="M475.61,473.16l-.74.54q-13.11,10-26.21,20c-1.29,1-2.81,1.89-4.16,2.82,0,0,.39.88.51,1.18,1.59,3.83,3.16,7.67,4.76,11.5q.94,2.25,2,4.47a4,4,0,0,0,1.07,1.69c.56.49,2.6-.7,3.54-1.41,2.85-2.12,5.74-4.19,8.48-6.39,6.51-5.22,13-10.49,19.41-15.75,1-.82,1-1.1,0-2.24C484.3,489.56,476.41,474.62,475.61,473.16Z" transform="translate(-190.38 -78.03)"/><path class="b503e069-78e3-4d72-a672-9fa7311f376a" d="M600.85,447.85c4.89,1.72,7.84,4.56,8.27,8.7a13.26,13.26,0,0,1-1,6.18,39.42,39.42,0,0,1-5.63,9.37.87.87,0,0,0,0,1.19c2.59,3.72,5.13,7.46,7.7,11.19.13.19.3.36.5.6a4,4,0,0,0,.27-.33c3.47-5.21,6.57-10.55,8.38-16.34a20.18,20.18,0,0,0,.48-12.21c-1.38-4.59-4.66-8.13-10.29-10.28-1.47-.55-3.07-.88-4.6-1.31l-3.93-.36-1.94.09c-4.52.25-8.73,1.11-12.22,3.3-.18.11-.32.25-.48.37a5.07,5.07,0,0,0,1.07-.21C591.79,446.63,596.25,446.22,600.85,447.85Z" transform="translate(-190.38 -78.03)"/><path class="b503e069-78e3-4d72-a672-9fa7311f376a" d="M630.86,515.71c-2.84-3.92-5.66-7.84-8.52-11.75-1.38-1.9-2.87-3.75-4.24-5.64q-4.11-5.7-8.15-11.43a214,214,0,0,1-14.28-22.46,36,36,0,0,1-3.83-9.63,10.18,10.18,0,0,1-.21-2.74c.15-1.94,1.17-3.42,3.87-3.87a13.87,13.87,0,0,0-2.06-.24c-5-.18-8.65,1.3-10.78,4.7a14.09,14.09,0,0,0-1.87,8.55,38,38,0,0,0,3.54,13A114,114,0,0,0,593.9,491c1.36,2.08,2.71,4.16,4.1,6.24.49.74,2.19,3.37,2.82,4.09a35,35,0,0,1,2.12,2.81q8.17,11.61,16.33,23.23c.63.9,1.11,2.31,2.17,2.41.22,0,.3-.12.47-.35q3.21-4.26,6.4-8.53c1.1-1.48,3-3,2.89-4.45A1.42,1.42,0,0,0,630.86,515.71Z" transform="translate(-190.38 -78.03)"/><path class="b503e069-78e3-4d72-a672-9fa7311f376a" d="M589.22,487.58l-.56.53q-9.81,9.81-19.61,19.61c-1,1-2.12,1.89-3.14,2.82,0,0,.39.67.52.91,1.6,3,3.18,5.95,4.79,8.92q.94,1.74,2,3.45a3.21,3.21,0,0,0,1,1.26c.5.34,2.06-.89,2.76-1.58,2.14-2.08,4.31-4.14,6.36-6.28,4.85-5.07,9.64-10.19,14.43-15.29.76-.8.7-1-.15-1.85C597.6,500.08,590,488.7,589.22,487.58Z" transform="translate(-190.38 -78.03)"/><path class="b503e069-78e3-4d72-a672-9fa7311f376a" d="M701.29,462.63c4.1,1,6.67,2.94,7.22,6.05a9.57,9.57,0,0,1-.52,4.75,30.52,30.52,0,0,1-4.18,7.48.63.63,0,0,0,0,.9c2.31,2.65,4.58,5.31,6.87,8,.12.13.27.25.44.42.11-.14.17-.2.21-.26A48.76,48.76,0,0,0,717.46,477a14.26,14.26,0,0,0-.19-9.28c-1.36-3.39-4.23-5.86-9-7.11-1.23-.33-2.56-.47-3.84-.69l-3.24,0-1.59.2a22.54,22.54,0,0,0-9.88,3.31c-.14.09-.25.21-.38.31a4.37,4.37,0,0,0,.87-.23A19.69,19.69,0,0,1,701.29,462.63Z" transform="translate(-190.38 -78.03)"/><path class="b503e069-78e3-4d72-a672-9fa7311f376a" d="M729.23,512.08c-2.53-2.78-5-5.57-7.57-8.35-1.23-1.34-2.54-2.64-3.75-4q-3.66-4-7.25-8.12a157.06,157.06,0,0,1-12.82-16.08,25.84,25.84,0,0,1-3.61-7,7,7,0,0,1-.3-2.07c0-1.48.79-2.67,3-3.19a14,14,0,0,0-1.7-.05c-4.1.2-7,1.56-8.63,4.28a10.13,10.13,0,0,0-1.11,6.61,26.86,26.86,0,0,0,3.52,9.6,82.47,82.47,0,0,0,8.68,12.14c1.22,1.49,2.43,3,3.67,4.46.45.54,2,2.41,2.52,2.92a27,27,0,0,1,1.88,2l14.53,16.53c.56.64,1,1.67,1.9,1.68.18,0,.24-.12.37-.3q2.43-3.44,4.84-6.89c.84-1.19,2.32-2.44,2.16-3.56A1,1,0,0,0,729.23,512.08Z" transform="translate(-190.38 -78.03)"/><path class="b503e069-78e3-4d72-a672-9fa7311f376a" d="M693.66,493.52l-.43.43q-7.58,8.08-15.16,16.16c-.75.79-1.65,1.58-2.44,2.34,0,0,.35.49.46.66l4.37,6.45c.58.83,1.18,1.66,1.8,2.48a2.35,2.35,0,0,0,.88.89c.42.23,1.65-.81,2.19-1.38,1.65-1.72,3.34-3.42,4.92-5.18,3.73-4.17,7.42-8.36,11.12-12.55.57-.65.52-.82-.22-1.39C701.15,502.43,694.34,494.31,693.66,493.52Z" transform="translate(-190.38 -78.03)"/></svg>